<svg xmlns="http://www.w3.org/2000/svg" width="13.544" height="16.253" viewBox="0 0 13.544 16.253">
  <g id="bell" transform="translate(-2)">
    <path id="Path_1628" data-name="Path 1628" d="M15.123,11.453a4.536,4.536,0,0,1-1.611-3.471V6.095A4.744,4.744,0,0,0,9.449,1.409V.677a.677.677,0,0,0-1.354,0v.731A4.744,4.744,0,0,0,4.032,6.095V7.983a4.541,4.541,0,0,1-1.617,3.476,1.185,1.185,0,0,0,.771,2.085H14.359a1.185,1.185,0,0,0,.765-2.091Z"/>
    <path id="Path_1629" data-name="Path 1629" d="M10.814,23.032A2.544,2.544,0,0,0,13.3,21H8.326A2.544,2.544,0,0,0,10.814,23.032Z" transform="translate(-2.042 -6.779)"/>
  </g>
</svg>
