<svg xmlns="http://www.w3.org/2000/svg" width="14.369" height="13.863" viewBox="0 0 14.369 13.863">
  <path id="birthday-cake-solid" d="M14.369,10.4c-.9,0-1-.866-2.39-.866s-1.5.866-2.4.866-1.009-.866-2.4-.866S5.67,10.4,4.8,10.4c-.9,0-1-.866-2.4-.866S.9,10.4,0,10.4V8.231a1.435,1.435,0,0,1,1.54-1.3h.513v-3.9H4.105v3.9H6.158v-3.9H8.211v3.9h2.053v-3.9h2.053v3.9h.513a1.435,1.435,0,0,1,1.54,1.3Zm0,3.466H0v-2.6c1.391,0,1.5-.866,2.4-.866s1,.866,2.4.866c1.374,0,1.514-.866,2.39-.866.9,0,1,.866,2.4.866s1.5-.866,2.4-.866c.882,0,1,.866,2.39.866ZM3.079,2.6a.954.954,0,0,1-1.026-.866C2.053.894,3.079,1.11,3.079,0c.385,0,1.026.8,1.026,1.516A.986.986,0,0,1,3.079,2.6Zm4.105,0a.954.954,0,0,1-1.026-.866C6.158.894,7.185,1.11,7.185,0c.385,0,1.026.8,1.026,1.516A.986.986,0,0,1,7.185,2.6Zm4.105,0a.954.954,0,0,1-1.026-.866C10.264.894,11.29,1.11,11.29,0c.385,0,1.026.8,1.026,1.516A.986.986,0,0,1,11.29,2.6Z" fill="#00355f"/>
</svg>
