<svg xmlns="http://www.w3.org/2000/svg" width="12.115" height="12.861" viewBox="0 0 12.115 12.861">
  <path id="calendar-alt-regular" d="M4,7.234H2.92a.315.315,0,0,1-.324-.3v-1a.315.315,0,0,1,.324-.3H4a.315.315,0,0,1,.324.3v1A.315.315,0,0,1,4,7.234Zm2.92-.3v-1a.315.315,0,0,0-.324-.3H5.516a.315.315,0,0,0-.324.3v1a.315.315,0,0,0,.324.3H6.6A.315.315,0,0,0,6.923,6.933Zm2.6,0v-1a.315.315,0,0,0-.324-.3H8.112a.315.315,0,0,0-.324.3v1a.315.315,0,0,0,.324.3H9.194A.315.315,0,0,0,9.519,6.933Zm-2.6,2.411v-1a.315.315,0,0,0-.324-.3H5.516a.315.315,0,0,0-.324.3v1a.315.315,0,0,0,.324.3H6.6A.315.315,0,0,0,6.923,9.344Zm-2.6,0v-1A.315.315,0,0,0,4,8.038H2.92a.315.315,0,0,0-.324.3v1a.315.315,0,0,0,.324.3H4A.315.315,0,0,0,4.327,9.344Zm5.192,0v-1a.315.315,0,0,0-.324-.3H8.112a.315.315,0,0,0-.324.3v1a.315.315,0,0,0,.324.3H9.194A.315.315,0,0,0,9.519,9.344Zm2.6-6.531v8.842a1.255,1.255,0,0,1-1.3,1.206H1.3A1.255,1.255,0,0,1,0,11.655V2.813A1.255,1.255,0,0,1,1.3,1.608H2.6V.3A.315.315,0,0,1,2.92,0H4a.315.315,0,0,1,.324.3V1.608H7.788V.3A.315.315,0,0,1,8.112,0H9.194a.315.315,0,0,1,.324.3V1.608h1.3A1.255,1.255,0,0,1,12.115,2.813Zm-1.3,8.691V4.019H1.3V11.5a.157.157,0,0,0,.162.151h9.194A.157.157,0,0,0,10.817,11.5Z" fill="#00355f"/>
</svg>
