<svg xmlns="http://www.w3.org/2000/svg" width="16.998" height="17.066" viewBox="0 0 16.998 17.066">
  <path id="chart-pie-solid" d="M16.49,9.6H9.075l4.938,5.268a.479.479,0,0,0,.693.023,8.17,8.17,0,0,0,2.285-4.7.523.523,0,0,0-.5-.595Zm-.495-2.16A7.781,7.781,0,0,0,9.022.005.519.519,0,0,0,8.5.545V8h6.992A.522.522,0,0,0,15.995,7.444ZM7,9.6V1.694a.514.514,0,0,0-.557-.535A7.864,7.864,0,0,0,0,9.349a7.828,7.828,0,0,0,7.59,7.72A7.133,7.133,0,0,0,11.818,15.6a.553.553,0,0,0,.049-.8Z" transform="translate(0.002 -0.004)" fill="#00355f"/>
</svg>
