<svg xmlns="http://www.w3.org/2000/svg" width="17.63" height="24.241" viewBox="0 0 17.63 24.241">
  <g id="coffee-cup" transform="translate(-0.168)">
    <path id="Path_1663" data-name="Path 1663" d="M33.75,64.7H24.676a1.1,1.1,0,0,1-1.093-.965L21.5,47.075V42.668H36.926v4.407L34.843,63.74A1.1,1.1,0,0,1,33.75,64.7Zm0,0" transform="translate(-20.23 -40.464)" fill="#f9dcc9"/>
    <path id="Path_1664" data-name="Path 1664" d="M33.75,64.7a1.1,1.1,0,0,0,1.093-.965l2.083-16.665V42.668H21.5v4.407H32.372a1.1,1.1,0,0,1,1.093,1.239L31.537,63.739a1.1,1.1,0,0,1-1.093.965Zm0,0" transform="translate(-20.23 -40.464)" fill="#f6cbaf"/>
    <path id="Path_1665" data-name="Path 1665" d="M56.054,2.2v1.1H42.832V2.2l.8-1.595A1.1,1.1,0,0,1,44.615,0h9.657a1.1,1.1,0,0,1,.985.609Zm0,0" transform="translate(-40.46 0)" fill="#653430"/>
    <path id="Path_1666" data-name="Path 1666" d="M196.88.609A1.1,1.1,0,0,0,195.895,0h-3.726a1.1,1.1,0,1,1,0,2.2v1.1h5.509V2.2Zm0,0" transform="translate(-182.084 0)" fill="#3e190c"/>
    <path id="Path_1667" data-name="Path 1667" d="M1.27,42.668H16.7a1.1,1.1,0,0,1,1.1,1.1v2.2a1.1,1.1,0,0,1-1.1,1.1H1.27a1.1,1.1,0,0,1-1.1-1.1v-2.2A1.1,1.1,0,0,1,1.27,42.668Zm0,0" transform="translate(0 -40.464)" fill="#7c534f"/>
    <path id="Path_1668" data-name="Path 1668" d="M35.824,200.815H22.6L21.5,192H36.926Zm0,0" transform="translate(-20.23 -182.083)" fill="#b77b65"/>
    <path id="Path_1669" data-name="Path 1669" d="M213.5,200.815h4.407l1.1-8.815H214.6Zm0,0" transform="translate(-202.313 -182.083)" fill="#aa644a"/>
    <path id="Path_1670" data-name="Path 1670" d="M219.009,42.668H213.5a1.1,1.1,0,0,1,1.1,1.1v2.2a1.1,1.1,0,0,1-1.1,1.1h5.509a1.1,1.1,0,0,0,1.1-1.1v-2.2A1.1,1.1,0,0,0,219.009,42.668Zm0,0" transform="translate(-202.313 -40.464)" fill="#653430"/>
    <path id="Path_1671" data-name="Path 1671" d="M43.934,42.668a1.1,1.1,0,0,1,1.1,1.1v2.2a1.1,1.1,0,0,1-2.2,0v-2.2A1.1,1.1,0,0,1,43.934,42.668Zm0,0" transform="translate(-40.461 -40.464)" fill="#93716e"/>
  </g>
</svg>
