<svg xmlns="http://www.w3.org/2000/svg" width="17.899" height="15.904" viewBox="0 0 17.899 15.904">
  <g id="coin-stack" transform="translate(0 -22.379)">
    <g id="Group_12511" data-name="Group 12511" transform="translate(0 22.379)">
      <path id="Path_1615" data-name="Path 1615" d="M5.2,117.238a11.148,11.148,0,0,0,1.449-.093V112.1a11.155,11.155,0,0,0-1.449-.093c-2.872,0-5.2,1.056-5.2,2.359v.512C0,116.182,2.329,117.238,5.2,117.238Z" transform="translate(-0.001 -108.014)"/>
      <path id="Path_1616" data-name="Path 1616" d="M5.2,216.527a11.166,11.166,0,0,0,1.449-.093v-1.478a11.153,11.153,0,0,1-1.449.093c-2.507,0-4.6-.8-5.091-1.876a1.15,1.15,0,0,0-.109.483v.512C0,215.471,2.329,216.527,5.2,216.527Z" transform="translate(-0.001 -204.671)"/>
      <path id="Path_1617" data-name="Path 1617" d="M6.65,274.155v-.115a11.156,11.156,0,0,1-1.449.093c-2.507,0-4.6-.8-5.091-1.876a1.15,1.15,0,0,0-.109.483v.512c0,1.3,2.328,2.359,5.2,2.359a11.045,11.045,0,0,0,1.643-.12,1.861,1.861,0,0,1-.194-.824Z" transform="translate(0 -261.121)"/>
      <path id="Path_1618" data-name="Path 1618" d="M173.439,22.379c-2.872,0-5.2,1.056-5.2,2.359v.512c0,1.3,2.328,2.359,5.2,2.359s5.2-1.056,5.2-2.359v-.512C178.64,23.435,176.311,22.379,173.439,22.379Z" transform="translate(-160.741 -22.379)"/>
      <path id="Path_1619" data-name="Path 1619" d="M173.439,125.42c-2.507,0-4.6-.8-5.091-1.876a1.15,1.15,0,0,0-.109.483v.512c0,1.3,2.328,2.359,5.2,2.359s5.2-1.056,5.2-2.359v-.512a1.15,1.15,0,0,0-.109-.483C178.039,124.615,175.946,125.42,173.439,125.42Z" transform="translate(-160.741 -119.035)"/>
      <path id="Path_1620" data-name="Path 1620" d="M173.439,184.5c-2.507,0-4.6-.8-5.091-1.876a1.15,1.15,0,0,0-.109.483v.512c0,1.3,2.328,2.359,5.2,2.359s5.2-1.056,5.2-2.359v-.512a1.15,1.15,0,0,0-.109-.483C178.039,183.7,175.946,184.5,173.439,184.5Z" transform="translate(-160.741 -175.486)"/>
      <path id="Path_1621" data-name="Path 1621" d="M173.439,246.777c-2.507,0-4.6-.8-5.091-1.876a1.15,1.15,0,0,0-.109.483v.512c0,1.3,2.328,2.359,5.2,2.359s5.2-1.056,5.2-2.359v-.512a1.15,1.15,0,0,0-.109-.483C178.039,245.972,175.946,246.777,173.439,246.777Z" transform="translate(-160.741 -234.984)"/>
      <path id="Path_1622" data-name="Path 1622" d="M173.439,305.86c-2.507,0-4.6-.8-5.091-1.875a1.15,1.15,0,0,0-.109.483v.512c0,1.3,2.328,2.359,5.2,2.359s5.2-1.056,5.2-2.359v-.512a1.15,1.15,0,0,0-.109-.483C178.039,305.055,175.946,305.86,173.439,305.86Z" transform="translate(-160.741 -291.433)"/>
    </g>
  </g>
</svg>
