<svg xmlns="http://www.w3.org/2000/svg" width="19" height="13.063" viewBox="0 0 19 13.063">
  <g id="credit-card" transform="translate(0 -80)">
    <path id="Path_1626" data-name="Path 1626" d="M19,83.08v-1A2.078,2.078,0,0,0,16.922,80H2.078A2.078,2.078,0,0,0,0,82.078v1a.186.186,0,0,0,.186.186H18.814A.186.186,0,0,0,19,83.08Z"/>
    <path id="Path_1627" data-name="Path 1627" d="M0,200.186v6.346a2.078,2.078,0,0,0,2.078,2.078H16.922A2.078,2.078,0,0,0,19,206.531v-6.346a.186.186,0,0,0-.186-.186H.186A.186.186,0,0,0,0,200.186Zm4.75,4.861a.594.594,0,0,1-.594.594H3.563a.594.594,0,0,1-.594-.594v-.594a.594.594,0,0,1,.594-.594h.594a.594.594,0,0,1,.594.594Z" transform="translate(0 -115.547)"/>
  </g>
</svg>
