<svg xmlns="http://www.w3.org/2000/svg" width="20.418" height="15.129" viewBox="0 0 20.418 15.129">
  <path id="envelope-regular" d="M18.5,64H1.914A1.9,1.9,0,0,0,0,65.891V77.238a1.9,1.9,0,0,0,1.914,1.891H18.5a1.9,1.9,0,0,0,1.914-1.891V65.891A1.9,1.9,0,0,0,18.5,64Zm0,1.891V67.5c-.894.719-2.32,1.838-5.367,4.2-.672.522-2,1.776-2.928,1.761-.925.015-2.256-1.239-2.928-1.761-3.047-2.357-4.473-3.476-5.367-4.2V65.891ZM1.914,77.238V69.925c.914.719,2.21,1.728,4.185,3.256.872.678,2.4,2.174,4.11,2.165,1.7.009,3.211-1.466,4.11-2.165,1.975-1.528,3.271-2.537,4.185-3.256v7.312Z" transform="translate(0 -64)" fill="#00355f"/>
</svg>
