<svg xmlns="http://www.w3.org/2000/svg" width="31" height="31" viewBox="0 0 31 31">
  <g id="Group_12659" data-name="Group 12659" transform="translate(-791 -765)">
    <g id="Path_1672" data-name="Path 1672" transform="translate(791 765)" fill="none">
      <path d="M15.5,0A15.616,15.616,0,0,1,27.15,5.276,15.258,15.258,0,0,1,31,15.5,15.5,15.5,0,1,1,15.5,0Z" stroke="none"/>
      <path d="M 15.5 1 C 11.62690925598145 1 7.985639572143555 2.508260726928711 5.246950149536133 5.246950149536133 C 2.508260726928711 7.985639572143555 1 11.62690925598145 1 15.5 C 1 19.37308883666992 2.508260726928711 23.01436042785645 5.246950149536133 25.75304985046387 C 7.985639572143555 28.49173927307129 11.62690925598145 30 15.5 30 C 19.37308883666992 30 23.01436042785645 28.49173927307129 25.75304985046387 25.75304985046387 C 28.49173927307129 23.01436042785645 30 19.37308883666992 30 15.5 C 30 11.92637062072754 28.69231986999512 8.445869445800781 26.41130065917969 5.949880599975586 C 24.97402000427246 4.372600555419922 23.31232070922852 3.144359588623047 21.47235107421875 2.299280166625977 C 19.59524917602539 1.437139511108398 17.58586120605469 1 15.5 1 M 15.5 0 C 20.03701972961426 0 24.11874961853027 1.949329376220703 27.15044975280762 5.276340484619141 C 29.46703910827637 7.811250686645508 31 11.47660064697266 31 15.5 C 31 24.06040954589844 24.06040954589844 31 15.5 31 C 6.939590454101562 31 0 24.06040954589844 0 15.5 C 0 6.939590454101562 6.939590454101562 0 15.5 0 Z" stroke="none" fill="#00355f"/>
    </g>
    <path id="tag-solid" d="M0,5.932v-4.8A1.191,1.191,0,0,1,1.244,0H6.536a1.312,1.312,0,0,1,.88.331l5.493,4.985a1.057,1.057,0,0,1,0,1.6l-5.292,4.8a1.336,1.336,0,0,1-1.76,0L.364,6.73A1.079,1.079,0,0,1,0,5.932ZM2.9,1.506A1.191,1.191,0,0,0,1.659,2.635,1.191,1.191,0,0,0,2.9,3.764,1.191,1.191,0,0,0,4.148,2.635,1.191,1.191,0,0,0,2.9,1.506Z" transform="translate(799.863 774.477)" fill="#00355f"/>
  </g>
</svg>
