<svg xmlns="http://www.w3.org/2000/svg" width="31" height="31" viewBox="0 0 31 31">
  <g id="Group_12658" data-name="Group 12658" transform="translate(-791 -456)">
    <g id="Path_1660" data-name="Path 1660" transform="translate(791 456)" fill="none">
      <path d="M15.5,0A15.616,15.616,0,0,1,27.15,5.276,15.258,15.258,0,0,1,31,15.5,15.5,15.5,0,1,1,15.5,0Z" stroke="none"/>
      <path d="M 15.5 1 C 11.62690925598145 1 7.985639572143555 2.508260726928711 5.246950149536133 5.246950149536133 C 2.508260726928711 7.985639572143555 1 11.62690925598145 1 15.5 C 1 19.37308883666992 2.508260726928711 23.01436042785645 5.246950149536133 25.75304985046387 C 7.985639572143555 28.49173927307129 11.62690925598145 30 15.5 30 C 19.37308883666992 30 23.01436042785645 28.49173927307129 25.75304985046387 25.75304985046387 C 28.49173927307129 23.01436042785645 30 19.37308883666992 30 15.5 C 30 11.92637062072754 28.69231986999512 8.445869445800781 26.41130065917969 5.949880599975586 C 24.97402000427246 4.372600555419922 23.31232070922852 3.144359588623047 21.47235107421875 2.299280166625977 C 19.59524917602539 1.437139511108398 17.58586120605469 1 15.5 1 M 15.5 0 C 20.03701972961426 0 24.11874961853027 1.949329376220703 27.15044975280762 5.276340484619141 C 29.46703910827637 7.811250686645508 31 11.47660064697266 31 15.5 C 31 24.06040954589844 24.06040954589844 31 15.5 31 C 6.939590454101562 31 0 24.06040954589844 0 15.5 C 0 6.939590454101562 6.939590454101562 0 15.5 0 Z" stroke="none" fill="#00355f"/>
    </g>
    <path id="gift-solid" d="M.706,43.186a.794.794,0,0,0,.706.86h3.53v-4.3H.706Zm5.647.86h3.53a.794.794,0,0,0,.706-.86V39.744H6.353Zm4.236-8.6H9.66a2.761,2.761,0,0,0,.223-1.076A2.189,2.189,0,0,0,7.942,32c-.918,0-1.511.573-2.272,1.837C4.908,32.573,4.315,32,3.4,32a2.189,2.189,0,0,0-1.941,2.366,2.722,2.722,0,0,0,.223,1.076H.706A.794.794,0,0,0,0,36.3v2.151a.4.4,0,0,0,.353.43H10.942a.4.4,0,0,0,.353-.43V36.3A.794.794,0,0,0,10.589,35.442Zm-7.194,0a1.1,1.1,0,0,1,0-2.151c.439,0,.763.089,1.9,2.151Zm4.547,0h-1.9c1.134-2.057,1.449-2.151,1.9-2.151a1.1,1.1,0,0,1,0,2.151Z" transform="translate(800.853 433.477)" fill="#00355f"/>
  </g>
</svg>
