<svg xmlns="http://www.w3.org/2000/svg" width="31" height="31" viewBox="0 0 31 31">
  <g id="Group_12660" data-name="Group 12660" transform="translate(-791 -1074)">
    <g id="Path_1673" data-name="Path 1673" transform="translate(791 1074)" fill="none">
      <path d="M15.5,0A15.616,15.616,0,0,1,27.15,5.276,15.258,15.258,0,0,1,31,15.5,15.5,15.5,0,1,1,15.5,0Z" stroke="none"/>
      <path d="M 15.5 1 C 11.62690925598145 1 7.985639572143555 2.508260726928711 5.246950149536133 5.246950149536133 C 2.508260726928711 7.985639572143555 1 11.62690925598145 1 15.5 C 1 19.37308883666992 2.508260726928711 23.01436042785645 5.246950149536133 25.75304985046387 C 7.985639572143555 28.49173927307129 11.62690925598145 30 15.5 30 C 19.37308883666992 30 23.01436042785645 28.49173927307129 25.75304985046387 25.75304985046387 C 28.49173927307129 23.01436042785645 30 19.37308883666992 30 15.5 C 30 11.92637062072754 28.69231986999512 8.445869445800781 26.41130065917969 5.949880599975586 C 24.97402000427246 4.372600555419922 23.31232070922852 3.144359588623047 21.47235107421875 2.299280166625977 C 19.59524917602539 1.437139511108398 17.58586120605469 1 15.5 1 M 15.5 0 C 20.03701972961426 0 24.11874961853027 1.949329376220703 27.15044975280762 5.276340484619141 C 29.46703910827637 7.811250686645508 31 11.47660064697266 31 15.5 C 31 24.06040954589844 24.06040954589844 31 15.5 31 C 6.939590454101562 31 0 24.06040954589844 0 15.5 C 0 6.939590454101562 6.939590454101562 0 15.5 0 Z" stroke="none" fill="#00355f"/>
    </g>
    <path id="coins-solid" d="M0,10.991v1.158c0,.957,2.175,1.736,4.857,1.736s4.857-.778,4.857-1.736V10.991a8.7,8.7,0,0,1-4.857,1.158A8.7,8.7,0,0,1,0,10.991Zm8.094-7.52c2.681,0,4.857-.778,4.857-1.736S10.776,0,8.094,0,3.238.778,3.238,1.736,5.413,3.471,8.094,3.471ZM0,8.147v1.4c0,.957,2.175,1.736,4.857,1.736S9.713,10.5,9.713,9.546v-1.4a7.744,7.744,0,0,1-4.857,1.4A7.744,7.744,0,0,1,0,8.147Zm10.523.3c1.449-.3,2.428-.86,2.428-1.5V5.785a5.955,5.955,0,0,1-2.428.936ZM4.857,4.339C2.175,4.339,0,5.31,0,6.509s2.175,2.17,4.857,2.17,4.857-.971,4.857-2.17S7.538,4.339,4.857,4.339ZM10.4,5.866c1.518-.293,2.547-.868,2.547-1.527V3.181A7.814,7.814,0,0,1,8.886,4.315,2.934,2.934,0,0,1,10.4,5.866Z" transform="translate(800.024 1082.557)" fill="#00355f"/>
  </g>
</svg>
