<svg xmlns="http://www.w3.org/2000/svg" width="19" height="18.334" viewBox="0 0 19 18.334">
  <path id="hand-holding-usd-solid" d="M8.941,5.167l1.79.512a.3.3,0,0,1-.082.591H9.475a.922.922,0,0,1-.369-.079.443.443,0,0,0-.5.072l-.627.627a.412.412,0,0,0-.074.1.439.439,0,0,0-.044.311.408.408,0,0,0,.172.253,2.618,2.618,0,0,0,1.138.412v.634a.575.575,0,0,0,.573.573h.573a.575.575,0,0,0,.573-.573v-.63A2.013,2.013,0,0,0,12.65,5.708,2.1,2.1,0,0,0,11.114,4l-1.79-.512A.3.3,0,0,1,9.406,2.9h1.174a.922.922,0,0,1,.37.079.443.443,0,0,0,.5-.072l.627-.627a.4.4,0,0,0,.072-.093.439.439,0,0,0,.045-.311.408.408,0,0,0-.172-.254,2.619,2.619,0,0,0-1.139-.412V.573A.575.575,0,0,0,10.316,0H9.743A.575.575,0,0,0,9.17.573V1.2A2.015,2.015,0,0,0,7.4,3.459,2.1,2.1,0,0,0,8.941,5.167Zm9.7,6.582a1.027,1.027,0,0,0-1.405,0L14.193,14.4a2,2,0,0,1-1.319.5h-3.9a.575.575,0,0,1,0-1.146h2.582a1.119,1.119,0,0,0,1.1-.953,1.211,1.211,0,0,0,.015-.2,1.1,1.1,0,0,0-1.056-1.144H6.333a3.7,3.7,0,0,0-2.444.941l-1.534,1.35H.528A.552.552,0,0,0,0,14.324v3.438a.552.552,0,0,0,.528.573H12.3a2.009,2.009,0,0,0,1.319-.5L18.6,13.5a1.21,1.21,0,0,0,.042-1.751Z"/>
</svg>
