<svg xmlns="http://www.w3.org/2000/svg" width="10.977" height="14.529" viewBox="0 0 10.977 14.529">
  <path id="hourglass-half-solid" d="M10.291,0H.686A.684.684,0,0,0,0,.681v.454a.684.684,0,0,0,.686.681A5.63,5.63,0,0,0,4.141,7.265,5.63,5.63,0,0,0,.686,12.713.684.684,0,0,0,0,13.394v.454a.684.684,0,0,0,.686.681h9.605a.684.684,0,0,0,.686-.681v-.454a.684.684,0,0,0-.686-.681A5.63,5.63,0,0,0,6.837,7.265a5.63,5.63,0,0,0,3.454-5.449.684.684,0,0,0,.686-.681V.681A.684.684,0,0,0,10.291,0ZM8.145,10.9H2.832a3.064,3.064,0,0,1,2.656-2.27A3.064,3.064,0,0,1,8.145,10.9Zm0-7.265H2.832a5.289,5.289,0,0,1-.317-1.816H8.462A5.29,5.29,0,0,1,8.145,3.632Z" fill="#00355f"/>
</svg>
