<svg xmlns="http://www.w3.org/2000/svg" width="20.172" height="14.409" viewBox="0 0 20.172 14.409">
  <path id="id-card-regular_1_" data-name="id-card-regular (1)" d="M18.491,32H1.681A1.617,1.617,0,0,0,0,33.544V44.865a1.617,1.617,0,0,0,1.681,1.544h16.81a1.617,1.617,0,0,0,1.681-1.544V33.544A1.617,1.617,0,0,0,18.491,32Zm0,12.865H10.618c.032-.145.028.116.028-.72a2.149,2.149,0,0,0-2.353-1.853,9.13,9.13,0,0,1-1.569.257,9,9,0,0,1-1.569-.257A2.149,2.149,0,0,0,2.8,44.145c0,.836-.007.576.028.72H1.681V35.6h16.81Zm-5.883-2.573H16.53a.27.27,0,0,0,.28-.257V41.52a.27.27,0,0,0-.28-.257H12.607a.27.27,0,0,0-.28.257v.515A.27.27,0,0,0,12.607,42.292Zm0-2.058H16.53a.27.27,0,0,0,.28-.257v-.515a.27.27,0,0,0-.28-.257H12.607a.27.27,0,0,0-.28.257v.515A.27.27,0,0,0,12.607,40.234Zm0-2.058H16.53a.27.27,0,0,0,.28-.257V37.4a.27.27,0,0,0-.28-.257H12.607a.27.27,0,0,0-.28.257v.515A.27.27,0,0,0,12.607,38.175ZM6.724,41.263a2.066,2.066,0,1,0,0-4.117,2.066,2.066,0,1,0,0,4.117Z" transform="translate(0 -32)" fill="#fff"/>
</svg>
