<svg xmlns="http://www.w3.org/2000/svg" width="18.697" height="14" viewBox="0 0 18.697 14">
  <path id="map-marked-alt-solid" d="M9.348,0C7.09,0,5.258,1.542,5.258,3.445c0,1.538,2.673,4.342,3.7,5.36a.576.576,0,0,0,.786,0c1.024-1.018,3.7-3.822,3.7-5.36C13.438,1.542,11.607,0,9.348,0Zm0,4.594A1.27,1.27,0,0,1,7.985,3.445,1.27,1.27,0,0,1,9.348,2.3a1.27,1.27,0,0,1,1.363,1.148A1.27,1.27,0,0,1,9.348,4.594ZM.653,5.9A.89.89,0,0,0,0,6.717v6.845a.516.516,0,0,0,.712.406L5.194,12.25V5.877A7.73,7.73,0,0,1,4.5,4.607Zm8.7,3.93a1.683,1.683,0,0,1-1.185-.464c-.638-.634-1.317-1.357-1.931-2.1V12.25L12.465,14V7.273c-.614.741-1.293,1.463-1.931,2.1A1.684,1.684,0,0,1,9.348,9.835Zm8.636-5.428L13.5,6.125V14l4.54-1.53a.89.89,0,0,0,.653-.812V4.813A.516.516,0,0,0,17.985,4.407Z" fill="#00355f"/>
</svg>
