<svg xmlns="http://www.w3.org/2000/svg" width="14.583" height="19.146" viewBox="0 0 14.583 19.146">
  <g id="medal" transform="translate(-61.009)">
    <g id="Group_12513" data-name="Group 12513" transform="translate(65.6 4.609)">
      <g id="Group_12512" data-name="Group 12512" transform="translate(0)">
        <path id="Path_1623" data-name="Path 1623" d="M188.063,126.25l1.124-1.069-1.566-.222a.561.561,0,0,1-.422-.3l-.713-1.41-.713,1.41a.561.561,0,0,1-.422.3l-1.566.222,1.124,1.069a.563.563,0,0,1,.166.5l-.268,1.527,1.423-.73a.564.564,0,0,1,.513,0l1.423.73-.268-1.527A.563.563,0,0,1,188.063,126.25Z" transform="translate(-183.786 -123.246)"/>
      </g>
    </g>
    <g id="Group_12515" data-name="Group 12515" transform="translate(61.009)">
      <g id="Group_12514" data-name="Group 12514" transform="translate(0)">
        <path id="Path_1624" data-name="Path 1624" d="M68.3,0a7.292,7.292,0,1,0,7.292,7.292A7.3,7.3,0,0,0,68.3,0Zm4.313,6.557L70.869,8.218l.411,2.342a.561.561,0,0,1-.809.6L68.3,10.042l-2.17,1.114a.561.561,0,0,1-.809-.6l.411-2.342L63.988,6.557A.562.562,0,0,1,64.3,5.6l2.423-.344L67.8,3.112a.584.584,0,0,1,1,0l1.081,2.139,2.423.344A.562.562,0,0,1,72.614,6.557Z" transform="translate(-61.009)"/>
      </g>
    </g>
    <g id="Group_12517" data-name="Group 12517" transform="translate(64.374 14.727)">
      <g id="Group_12516" data-name="Group 12516" transform="translate(0)">
        <path id="Path_1625" data-name="Path 1625" d="M154.931,394.809a8.358,8.358,0,0,1-3.926-.978v3.857a.561.561,0,0,0,.872.467l3.054-2.036,3.054,2.036a.561.561,0,0,0,.872-.467v-3.857A8.357,8.357,0,0,1,154.931,394.809Z" transform="translate(-151.005 -393.831)"/>
      </g>
    </g>
  </g>
</svg>
