<svg xmlns="http://www.w3.org/2000/svg" width="19" height="18" viewBox="0 0 19 18">
  <path id="medal-solid" d="M8.3,4.6,5.738.546A1.2,1.2,0,0,0,4.72,0H.6A.562.562,0,0,0,.109.885L4.238,6.474A7.856,7.856,0,0,1,8.3,4.6ZM18.406,0H14.281a1.2,1.2,0,0,0-1.018.546L10.7,4.6a7.858,7.858,0,0,1,4.066,1.877L18.892.885A.562.562,0,0,0,18.406,0ZM9.5,5.625a6.366,6.366,0,0,0-6.531,6.188A6.366,6.366,0,0,0,9.5,18a6.366,6.366,0,0,0,6.531-6.187A6.366,6.366,0,0,0,9.5,5.625Zm3.433,5.529-1.408,1.3.333,1.836a.422.422,0,0,1-.618.425L9.5,13.847l-1.74.867a.422.422,0,0,1-.618-.425l.333-1.836-1.408-1.3a.4.4,0,0,1,.236-.689L8.249,10.2l.869-1.671a.438.438,0,0,1,.765,0l.869,1.671,1.946.269A.4.4,0,0,1,12.934,11.154Z" transform="translate(-0.001)"/>
</svg>
