<svg id="menu" xmlns="http://www.w3.org/2000/svg" width="12.754" height="12.754" viewBox="0 0 12.754 12.754">
  <path id="Path_5" data-name="Path 5" d="M4.916,0H.93A.931.931,0,0,0,0,.93V3.321a.931.931,0,0,0,.93.93H4.916a.931.931,0,0,0,.93-.93V.93A.931.931,0,0,0,4.916,0Z"/>
  <path id="Path_6" data-name="Path 6" d="M4.916,10H.93a.931.931,0,0,0-.93.93v5.58a.931.931,0,0,0,.93.93H4.916a.931.931,0,0,0,.93-.93V10.93A.931.931,0,0,0,4.916,10Z" transform="translate(0 -4.686)"/>
  <path id="Path_7" data-name="Path 7" d="M17.916,16H13.93a.931.931,0,0,0-.93.93v2.391a.931.931,0,0,0,.93.93h3.986a.931.931,0,0,0,.93-.93V16.93A.931.931,0,0,0,17.916,16Z" transform="translate(-6.092 -7.497)"/>
  <path id="Path_8" data-name="Path 8" d="M17.916,0H13.93A.931.931,0,0,0,13,.93V6.51a.931.931,0,0,0,.93.93h3.986a.931.931,0,0,0,.93-.93V.93A.931.931,0,0,0,17.916,0Z" transform="translate(-6.092)"/>
</svg>
