<svg xmlns="http://www.w3.org/2000/svg" width="11.867" height="14.99" viewBox="0 0 11.867 14.99">
  <g id="notes" transform="translate(-2)">
    <path id="Path_1656" data-name="Path 1656" d="M6.375,3.435a.625.625,0,0,1-.625-.625V.625A.625.625,0,1,1,7,.625V2.811A.625.625,0,0,1,6.375,3.435Z" transform="translate(-1.408)"/>
    <path id="Path_1657" data-name="Path 1657" d="M11.125,3.435a.625.625,0,0,1-.625-.625V.625a.625.625,0,0,1,1.249,0V2.811A.625.625,0,0,1,11.125,3.435Z" transform="translate(-3.191)"/>
    <path id="Path_1658" data-name="Path 1658" d="M15.875,3.435a.625.625,0,0,1-.625-.625V.625a.625.625,0,0,1,1.249,0V2.811A.625.625,0,0,1,15.875,3.435Z" transform="translate(-4.974)"/>
    <path id="Path_1659" data-name="Path 1659" d="M12.15,2.25H3.718A1.719,1.719,0,0,0,2,3.968v10.15a1.719,1.719,0,0,0,1.718,1.718H12.15a1.719,1.719,0,0,0,1.718-1.718V3.968A1.719,1.719,0,0,0,12.15,2.25ZM5.123,5.841H8.246a.625.625,0,1,1,0,1.249H5.123a.625.625,0,0,1,0-1.249Zm6.246,6.246H5.123a.625.625,0,1,1,0-1.249h6.246a.625.625,0,0,1,0,1.249Zm0-2.5H5.123a.625.625,0,0,1,0-1.249h6.246a.625.625,0,0,1,0,1.249Z" transform="translate(0 -0.845)"/>
  </g>
</svg>
