<svg xmlns="http://www.w3.org/2000/svg" width="19.301" height="18.102" viewBox="0 0 19.301 18.102">
  <path id="plane-solid" d="M12.743,4.756H9.709L6.92.2A.431.431,0,0,0,6.551,0H4.812A.4.4,0,0,0,4.4.505l1.3,4.251H2.975L1.829,3.329a.436.436,0,0,0-.34-.159H.428a.4.4,0,0,0-.412.492L.852,6.342.016,9.02a.4.4,0,0,0,.412.492H1.489a.435.435,0,0,0,.34-.159L2.975,7.927h2.73L4.4,12.178a.4.4,0,0,0,.408.505H6.551a.431.431,0,0,0,.369-.2l2.79-4.557h3.033c.938,0,2.548-.71,2.548-1.585S13.681,4.756,12.743,4.756Z" transform="matrix(0.899, -0.438, 0.438, 0.899, -0.002, 6.703)" fill="#00355f"/>
</svg>
