<svg xmlns="http://www.w3.org/2000/svg" width="15.653" height="16.909" viewBox="0 0 15.653 16.909">
  <path id="running-solid" d="M10.234,3.171A1.707,1.707,0,0,0,12.04,1.585,1.707,1.707,0,0,0,10.234,0,1.707,1.707,0,0,0,8.428,1.585,1.707,1.707,0,0,0,10.234,3.171ZM4.278,10.485l-.557,1.14H1.2A1.138,1.138,0,0,0,0,12.682a1.138,1.138,0,0,0,1.2,1.057H4.118a1.824,1.824,0,0,0,1.66-.961l.331-.678-.4-.208a3.323,3.323,0,0,1-1.429-1.407ZM14.449,7.4H12.792l-.981-1.759A3.543,3.543,0,0,0,9.487,3.957l-2.674-.7a3.994,3.994,0,0,0-3.042.566l-1.493,1A.973.973,0,0,0,2.055,6.31a1.319,1.319,0,0,0,1.688.2l1.493-1a1.3,1.3,0,0,1,.951-.2l.553.144L5.331,8.329a1.994,1.994,0,0,0,.99,2.652l3.2,1.657-1.034,2.9a1.038,1.038,0,0,0,.789,1.324,1.358,1.358,0,0,0,.36.049,1.2,1.2,0,0,0,1.148-.741l1.191-3.338a1.512,1.512,0,0,0-.814-1.8L8.854,9.84l1.178-2.585L10.8,8.623a1.856,1.856,0,0,0,1.622.888h2.031a1.138,1.138,0,0,0,1.2-1.057,1.138,1.138,0,0,0-1.2-1.057Z" fill="#00355f"/>
</svg>
