<svg xmlns="http://www.w3.org/2000/svg" width="13.129" height="14.267" viewBox="0 0 13.129 14.267">
  <path id="shopping-bag-solid" d="M10.315,4.458V3.567A3.667,3.667,0,0,0,6.564,0,3.667,3.667,0,0,0,2.813,3.567v.892H0v7.579a2.289,2.289,0,0,0,2.344,2.229h8.44a2.289,2.289,0,0,0,2.344-2.229V4.458ZM4.689,3.567A1.833,1.833,0,0,1,6.564,1.783,1.833,1.833,0,0,1,8.44,3.567v.892H4.689ZM9.378,6.91a.67.67,0,1,1,.7-.669A.687.687,0,0,1,9.378,6.91Zm-5.627,0a.67.67,0,1,1,.7-.669A.687.687,0,0,1,3.751,6.91Z" fill="#00355f"/>
</svg>
