<svg xmlns="http://www.w3.org/2000/svg" width="32.453" height="30.298" viewBox="0 0 32.453 30.298">
  <g id="silver-medal" transform="translate(0 -16.998)">
    <path id="Path_1646" data-name="Path 1646" d="M.426,303.41c-.752.752-.508,1.66.731,1.721l3.53.447c1.223.154.979.205,1.125,1.368l.373,3.217c.063,1.242.97,1.485,1.72.732l2.508-2.509,2.567-2.572a2.188,2.188,0,0,1-.659-.386l-1.821-4.6-5.561-1.938Z" transform="translate(0 -264.027)" fill="#00a1e0"/>
    <path id="Path_1647" data-name="Path 1647" d="M97.805,385.915l-2.242,2.245.127,1.1c.063,1.243.97,1.485,1.72.732l2.508-2.509,2.567-2.572a2.183,2.183,0,0,1-.659-.387l-1.452-1.183Z" transform="translate(-89.505 -343.125)" fill="#0abaff"/>
    <path id="Path_1648" data-name="Path 1648" d="M307.206,305.376l2.569,2.572,2.506,2.509c.752.753,1.659.51,1.721-.732l.371-3.217c.146-1.163-.1-1.215,1.127-1.368l3.528-.447c1.241-.061,1.483-.969.733-1.721l-4.542-4.547-6.069.616Z" transform="translate(-287.734 -263.588)" fill="#00a1e0"/>
    <path id="Path_1649" data-name="Path 1649" d="M381.008,300.489l4.35,4.356,1.191-.152c1.241-.061,1.483-.969.733-1.721l-4.542-4.547-3.445.349Z" transform="translate(-355.254 -263.589)" fill="#0abaff"/>
    <path id="Path_1650" data-name="Path 1650" d="M71.984,17.232l1.69.8,2.394.153a2.284,2.284,0,0,1,1.54.917l1.127,1.5,2.046,1.252a2.281,2.281,0,0,1,.94,1.531l.3,1.849,1.234,2.063a2.289,2.289,0,0,1,.122,1.792l-.587,1.782.137,2.4a2.287,2.287,0,0,1-.72,1.646l-1.345,1.3-.992,2.191a2.273,2.273,0,0,1-1.4,1.119l-1.8.527-1.891,1.477a2.267,2.267,0,0,1-1.76.338l-1.832-.37-2.359.425a2.264,2.264,0,0,1-1.714-.52L65.67,40.219,63.384,39.5a2.275,2.275,0,0,1-1.276-1.259l-.737-1.723-1.69-1.707a2.289,2.289,0,0,1-.547-1.712l.146-1.869-.706-2.3a2.286,2.286,0,0,1,.307-1.771l1-1.586.44-2.365a2.286,2.286,0,0,1,1.093-1.424l1.616-.943L64.51,18.95a2.273,2.273,0,0,1,1.627-.751L68,18.118l2.191-.98a2.271,2.271,0,0,1,1.788.094Z" transform="translate(-54.801 -0.001)" fill="#e6e2e6"/>
    <path id="Path_1651" data-name="Path 1651" d="M113.411,80.952a9.64,9.64,0,1,0-9.63-9.641A9.634,9.634,0,0,0,113.411,80.952Z" transform="translate(-97.202 -41.843)" fill="#ab9faa"/>
    <path id="Path_1652" data-name="Path 1652" d="M306.393,77.35a9.639,9.639,0,0,0-6.851-9.23,18.216,18.216,0,0,1,3.011,10.356,19.883,19.883,0,0,1-.942,6.126c-.15.464-.318.915-.5,1.353a9.643,9.643,0,0,0,5.282-8.605Z" transform="translate(-280.555 -47.882)" fill="#9c8f9a"/>
    <path id="Path_1653" data-name="Path 1653" d="M260.444,29.084a2.289,2.289,0,0,0-.122-1.792l-1.234-2.063-.3-1.849a2.281,2.281,0,0,0-.94-1.531L255.8,20.6l-1.127-1.5a2.284,2.284,0,0,0-1.54-.917l-2.394-.153-1.69-.8a2.311,2.311,0,0,0-1.491-.185,11.234,11.234,0,0,1,3.3,3.191,9.646,9.646,0,0,1,1.568,17.835,16,16,0,0,1-.831,1.7,13.8,13.8,0,0,1-1.446,2.1,2.245,2.245,0,0,0,1.012-.033,2.021,2.021,0,0,0,.7-.316l1.891-1.477,1.8-.527a2.273,2.273,0,0,0,1.4-1.119l.992-2.191,1.3-1.261.044-.041a2.288,2.288,0,0,0,.72-1.646l-.137-2.4Z" transform="translate(-231.864)" fill="#cac0c9"/>
    <path id="Path_1654" data-name="Path 1654" d="M204.868,119.386a3,3,0,0,0-1-2.293,3.594,3.594,0,0,0-2.538-.928,3.781,3.781,0,0,0-2.65,1.028,3.17,3.17,0,0,0-1.119,2.407q0,1.243,1.134,1.243a1.056,1.056,0,0,0,1.012-.8l.214-.568a1.337,1.337,0,0,1,1.287-1.028,1.056,1.056,0,0,1,.774.314,1.021,1.021,0,0,1,.314.745,2.9,2.9,0,0,1-.674,1.533q-.413.555-1.793,2.163l-1.9,2.21a1.6,1.6,0,0,0-.46.906,1.012,1.012,0,0,0,.345.8,1.27,1.27,0,0,0,.881.307h5.349a1.081,1.081,0,0,0,.8-.322,1.2,1.2,0,0,0,.323-.814,1.058,1.058,0,0,0-.338-.767,1.206,1.206,0,0,0-.813-.322H201.22q1.3-1.456,1.762-2.039l.966-1.228A4.48,4.48,0,0,0,204.868,119.386Z" transform="translate(-184.948 -92.881)" fill="#e6e2e6"/>
    <path id="Path_1655" data-name="Path 1655" d="M238.447,121.933a4.481,4.481,0,0,0,.92-2.548,3,3,0,0,0-1-2.293,3.586,3.586,0,0,0-2.527-.928,20.8,20.8,0,0,1,.214,2.337,1.035,1.035,0,0,1,.427.263,1.021,1.021,0,0,1,.314.745,2.9,2.9,0,0,1-.674,1.533c-.042.057-.092.124-.151.2a18.62,18.62,0,0,1-1.668,6.187h4.241a1.082,1.082,0,0,0,.8-.322,1.2,1.2,0,0,0,.323-.814,1.058,1.058,0,0,0-.338-.767,1.206,1.206,0,0,0-.813-.322h-2.789q1.3-1.456,1.762-2.039Z" transform="translate(-219.448 -92.881)" fill="#cac0c9"/>
  </g>
</svg>
