<svg xmlns="http://www.w3.org/2000/svg" width="19" height="12.391" viewBox="0 0 19 12.391">
  <g id="user_3_" data-name="user (3)" transform="translate(0 -85.333)">
    <g id="Group_12410" data-name="Group 12410" transform="translate(6.609 85.333)">
      <g id="Group_12409" data-name="Group 12409" transform="translate(0 0)">
        <circle id="Ellipse_1" data-name="Ellipse 1" cx="2.891" cy="2.891" r="2.891" fill="#00355f"/>
      </g>
    </g>
    <g id="Group_12412" data-name="Group 12412" transform="translate(13.217 88.637)">
      <g id="Group_12411" data-name="Group 12411" transform="translate(0 0)">
        <circle id="Ellipse_2" data-name="Ellipse 2" cx="2.065" cy="2.065" r="2.065" fill="#00355f"/>
      </g>
    </g>
    <g id="Group_12414" data-name="Group 12414" transform="translate(1.711 88.637)">
      <g id="Group_12413" data-name="Group 12413" transform="translate(0 0)">
        <circle id="Ellipse_3" data-name="Ellipse 3" cx="2.065" cy="2.065" r="2.065" fill="#00355f"/>
      </g>
    </g>
    <g id="Group_12416" data-name="Group 12416" transform="translate(4.13 91.942)">
      <g id="Group_12415" data-name="Group 12415">
        <path id="Path_9" data-name="Path 9" d="M112.036,256a5.376,5.376,0,0,0-5.37,5.37.413.413,0,0,0,.413.413h9.913a.413.413,0,0,0,.413-.413A5.376,5.376,0,0,0,112.036,256Z" transform="translate(-106.666 -256)" fill="#00355f"/>
      </g>
    </g>
    <g id="Group_12418" data-name="Group 12418" transform="translate(0 93.594)">
      <g id="Group_12417" data-name="Group 12417" transform="translate(0 0)">
        <path id="Path_10" data-name="Path 10" d="M4.488,298.756a3.7,3.7,0,0,0-.771-.089A3.722,3.722,0,0,0,0,302.384a.413.413,0,0,0,.413.413H3.38a1.225,1.225,0,0,1-.076-.413A6.157,6.157,0,0,1,4.488,298.756Z" transform="translate(0 -298.667)" fill="#00355f"/>
      </g>
    </g>
    <g id="Group_12420" data-name="Group 12420" transform="translate(14.512 93.594)">
      <g id="Group_12419" data-name="Group 12419" transform="translate(0 0)">
        <path id="Path_11" data-name="Path 11" d="M375.534,298.667a3.706,3.706,0,0,0-.771.089,6.157,6.157,0,0,1,1.184,3.628,1.226,1.226,0,0,1-.076.413h2.967a.413.413,0,0,0,.413-.413A3.722,3.722,0,0,0,375.534,298.667Z" transform="translate(-374.763 -298.667)" fill="#00355f"/>
      </g>
    </g>
  </g>
</svg>
