<svg xmlns="http://www.w3.org/2000/svg" width="19.247" height="16.252" viewBox="0 0 19.247 16.252">
  <path id="user-cog-solid" d="M18.362,11.85a3.927,3.927,0,0,0,0-1.352l.776-.473a.236.236,0,0,0,.1-.27,4.832,4.832,0,0,0-1-1.822.211.211,0,0,0-.271-.044l-.776.473a3.491,3.491,0,0,0-1.11-.676V6.739a.229.229,0,0,0-.171-.225,4.306,4.306,0,0,0-1.991,0,.229.229,0,0,0-.171.225v.946a3.491,3.491,0,0,0-1.11.676l-.776-.473a.212.212,0,0,0-.271.044,4.832,4.832,0,0,0-1,1.822.24.24,0,0,0,.1.27l.776.473a3.926,3.926,0,0,0,0,1.352l-.776.473a.236.236,0,0,0-.1.27,4.856,4.856,0,0,0,1,1.822.211.211,0,0,0,.271.044l.776-.473a3.491,3.491,0,0,0,1.11.676v.946a.229.229,0,0,0,.171.225,4.306,4.306,0,0,0,1.991,0,.229.229,0,0,0,.171-.225v-.946a3.491,3.491,0,0,0,1.11-.676l.776.473a.212.212,0,0,0,.271-.044,4.832,4.832,0,0,0,1-1.822.24.24,0,0,0-.1-.27Zm-3.444.863a1.542,1.542,0,1,1,1.459-1.54A1.5,1.5,0,0,1,14.918,12.713ZM6.737,8.126a3.96,3.96,0,0,0,3.85-4.063A3.96,3.96,0,0,0,6.737,0a3.96,3.96,0,0,0-3.85,4.063A3.96,3.96,0,0,0,6.737,8.126Zm6.051,7.19c-.069-.038-.138-.083-.2-.124l-.238.146a1.156,1.156,0,0,1-.59.168,1.167,1.167,0,0,1-.869-.4A5.872,5.872,0,0,1,9.679,12.9a1.273,1.273,0,0,1,.538-1.451l.238-.146q0-.124,0-.248l-.238-.146a1.271,1.271,0,0,1-.538-1.451c.027-.092.066-.184.1-.276-.114-.01-.226-.038-.343-.038h-.5a4.987,4.987,0,0,1-4.385,0h-.5A4.16,4.16,0,0,0,0,13.408v1.32a1.486,1.486,0,0,0,1.444,1.524H12.031a1.39,1.39,0,0,0,.818-.27,1.3,1.3,0,0,1-.06-.375Z" fill="#fff"/>
</svg>
