<svg xmlns="http://www.w3.org/2000/svg" width="16.508" height="15.106" viewBox="0 0 16.508 15.106">
  <path id="venus-mars-solid_1_" data-name="venus-mars-solid (1)" d="M16.164,0H13.9a.356.356,0,0,0-.244.6l.484.5-1.4,1.437A4.036,4.036,0,0,0,7.99,2.8a5.253,5.253,0,0,1,.92,1.685,2.252,2.252,0,0,1,1.636-.708,2.361,2.361,0,0,1,0,4.721A2.256,2.256,0,0,1,8.91,7.789a5.2,5.2,0,0,1-.92,1.685,4.029,4.029,0,0,0,2.556.912,4.19,4.19,0,0,0,4.127-4.249,4.32,4.32,0,0,0-.633-2.263l1.4-1.437.484.5a.331.331,0,0,0,.241.1.348.348,0,0,0,.347-.354V.354A.35.35,0,0,0,16.164,0ZM4.127,1.888A4.19,4.19,0,0,0,0,6.137a4.224,4.224,0,0,0,3.21,4.142V11.8H2.178a.35.35,0,0,0-.344.354v1.18a.35.35,0,0,0,.344.354H3.21v1.062a.35.35,0,0,0,.344.354H4.7a.35.35,0,0,0,.344-.354V13.69H6.076a.35.35,0,0,0,.344-.354v-1.18a.35.35,0,0,0-.344-.354H5.044V10.279a4.227,4.227,0,0,0,3.21-4.142A4.19,4.19,0,0,0,4.127,1.888Zm0,6.609a2.361,2.361,0,0,1,0-4.721,2.361,2.361,0,0,1,0,4.721Z" fill="#00355f"/>
</svg>
