<svg xmlns="http://www.w3.org/2000/svg" width="15.055" height="16.498" viewBox="0 0 15.055 16.498">
  <g id="XMLID_227_" transform="translate(-15.741)">
    <path id="XMLID_228_" d="M30.8,5.806H28.573V3.567L24.768,0H15.741V16.5H28.573V14.18H30.8Zm-1.375,7H19.8V7.181h9.624Z"/>
    <path id="XMLID_231_" d="M128.908,185.485h-1.46V183.11h-.556v2.863h2.016Z" transform="translate(-106.057 -174.718)"/>
    <path id="XMLID_232_" d="M170.925,185.124a1.4,1.4,0,0,0,.44.327,1.3,1.3,0,0,0,.571.123,1.323,1.323,0,0,0,.561-.119,1.4,1.4,0,0,0,.444-.319,1.484,1.484,0,0,0,.29-.46,1.448,1.448,0,0,0,.1-.546,1.474,1.474,0,0,0-.1-.532,1.534,1.534,0,0,0-.282-.468,1.416,1.416,0,0,0-.438-.333,1.258,1.258,0,0,0-.567-.127,1.323,1.323,0,0,0-.561.119,1.406,1.406,0,0,0-.446.321,1.513,1.513,0,0,0-.294.464,1.438,1.438,0,0,0-.107.548,1.515,1.515,0,0,0,.385,1Zm.234-1.351a.977.977,0,0,1,.159-.307.8.8,0,0,1,.262-.218.817.817,0,0,1,.708,0,.79.79,0,0,1,.262.212.99.99,0,0,1,.165.306,1.116,1.116,0,0,1,.058.359,1.146,1.146,0,0,1-.054.349.98.98,0,0,1-.161.309.813.813,0,0,1-.262.22.812.812,0,0,1-.71,0,.811.811,0,0,1-.262-.214.956.956,0,0,1-.163-.307,1.156,1.156,0,0,1,0-.708Z" transform="translate(-147.705 -174.299)"/>
    <path id="XMLID_236_" d="M237.551,185.15a1.341,1.341,0,0,0,.432.311,1.264,1.264,0,0,0,.53.113,1.1,1.1,0,0,0,.8-.343v.323h.46v-1.472h-1.036v.407h.577v.2a.976.976,0,0,1-.75.391.767.767,0,0,1-.337-.075.83.83,0,0,1-.268-.2.958.958,0,0,1-.177-.3,1.083,1.083,0,0,1-.065-.377,1.141,1.141,0,0,1,.058-.367.99.99,0,0,1,.165-.307.779.779,0,0,1,.258-.21.726.726,0,0,1,.333-.077.836.836,0,0,1,.425.113.772.772,0,0,1,.3.327l.415-.306a1.1,1.1,0,0,0-.434-.456,1.342,1.342,0,0,0-.692-.169,1.325,1.325,0,0,0-.553.115,1.412,1.412,0,0,0-.442.311,1.454,1.454,0,0,0-.4,1.01,1.549,1.549,0,0,0,.107.579A1.483,1.483,0,0,0,237.551,185.15Z" transform="translate(-211.266 -174.298)"/>
  </g>
</svg>
